# xmcd CD database file
#
# Track frame offsets:
#	150
#	51327
#	57008
#	63648
#	81780
#	100795
#	115458
#	134854
#	169043
#	219236
#	247172
#	253996
#	272520
#	289199
#	305472
#	310241
#	315781
#	326785
#
# Disc length: 4399 seconds
#
# Revision: 3
# Processed by: cddbd v1.5.2PL0 Copyright (c) Steve Scherf et al.
# Submitted via: CDex 1.51
#
DISCID=12112d12
DTITLE=Dokaka - The Dokaka Discography (Disk 2)
DYEAR=2010
DGENRE=New Age
TTITLE0=Tadokas
TTITLE1=Dance De FF3
TTITLE2=Ponta
TTITLE3=Green Earrings
TTITLE4=Bug
TTITLE5=Neko Shiritori Part II
TTITLE6=Electric Funeral
TTITLE7=21st Century Schizoi Dokaka
TTITLE8=Fracture
TTITLE9=Dokaka's Tongue In Aspic Part II
TTITLE10=Rolling Head Three
TTITLE11=Final Hour
TTITLE12=I'm Completely Naked
TTITLE13=Kyoten
TTITLE14=Back To The Future
TTITLE15=Mic Check
TTITLE16=Take One Two Three
TTITLE17=Train
EXTD=YEAR: 2010
EXTT0=
EXTT1=
EXTT2=
EXTT3=
EXTT4=
EXTT5=
EXTT6=
EXTT7=
EXTT8=
EXTT9=
EXTT10=
EXTT11=
EXTT12=
EXTT13=
EXTT14=
EXTT15=
EXTT16=
EXTT17=
PLAYORDER=
